<?xml version="1.0" encoding="UTF-8"?>
<svg xmlns="http://www.w3.org/2000/svg" viewBox="0 0 319.15 259.91">
  <g id="Layer_7" data-name="Layer 7">
    <path
      d="m110.31,196.54c-1.08-3.46-2.78-6.54-4.44-9.66-2.64-4.94-5.68-9.57-10.76-12.48-1.78-1.02-3.8-2.25-4.77-3.92-1.12-1.91-2.47-3.05-4.28-4.16-3.75-2.31-5.59-2.14-8.08,1.69-.67,1.03-.76.45-1.27.09-.76-.54-1.7-.84-2.38-1.45-3.39-3.02-6.23-6.49-8.42-10.49-.6-1.1-1.33-2.19-2.23-3.06-.94-.9-2.55-.3-2.68,1.08-.12,1.37-.83,2.05-1.84,2.59-2.87,1.54-5.93,1.1-8.97.76-1.42-2.17-2.58.21-3.74.42-1.61.3-1.66,1.73-.52,3.32,1.81,2.52,1.31,3.77-1.4,5.57-1.96,1.3-3.84,2.16-6.21,1.99-.43-.03-.97.51-1.36.88-.61.58-1.15,1.24-1.72,1.86-.1-.79-.25-1.58-.28-2.38-.05-1.33.1-2.68-.04-3.99-.16-1.48.13-2.42,1.78-2.74.43-.08,1.09-1.21,1.01-1.31-1.49-1.76-.29-3.87-.85-5.68-.19-.61-.63-2.31-2.35-.91-.97.79-2.05-.22-1.46-1.32,1.43-2.69,1.67-5.13-.6-7.53-.46-.48-.42-1.49-.49-2.27-.22-2.64-.2-2.65-2.66-2.64-.99,0-2.06-.15-2.92.19-.4.16-2.19.73-.74,2.05.28.26.3.9.28,1.35-.02.45-.26.88-.4,1.32-.19-.37-.32-.8-.58-1.11-1.5-1.87-3-3.39-5.59-4.21-1.85-.58-3.54-.09-4.9-.6-.82,0-1.32,0-1.82,0-2.06.04-4.48-.56-4.82,2.64-.35-.12-.74-.4-1.05-.32-2.09.49-4.81.8-5.39,2.96-.8,3-2.43,6.18-1.12,9.32.46,1.12.82,2.13.67,3.19-.23,1.6.72,2.43,1.68,3.32.31.28.89.74,1.02.65.52-.37,1.21-.88,1.29-1.42.18-1.31,0-2.66.08-3.99.04-.78.03-1.97.48-2.24,2.74-1.62,2.28-5.38,4.88-7.06.41-.26.42-1.13.63-1.71.75-2.09,2.55-3.04,4.5-2.28.28.11.6.99.45,1.23-.93,1.47-1.72,3.57-3.08,4.09-2.19.85-1.86,2.22-1.88,3.77-.01.82.18,1.76-.15,2.43-2.42,4.95-1.71,10.8-4.53,15.62-.09.16.06.46.12.7.76,3.33,1.02,6.84,2.86,9.8,1.99,3.22,3.01,6.54,2.77,10.38-.26,4.14,2.39,7.31,4.26,10.7,4.16,1.96,6.48,5.98,9.82,8.85,1.58,1.36,5.38,3.16,7.65,4.44,1.97,1.11,4.16.71,6.18,2.1,4.07,2.81,7.65,6.26,11.78,8.9,3.69,2.36,5.71,5.64,7.32,9.44.36.85.83,1.69,1.41,2.41,3.16,3.94,5.79,8.23,8.55,12.44,1.54,2.34,3.62,4.25,6.95,3.62,1.29-.24,2.69-.22,3.98,0,1.67.29,3.85.4,4.8,1.47,1.97,2.23,4.72,2.47,6.99,3.81,2.36,1.4,4.88.72,7.21.5,1.32-.13,2.53-1.9,3.66-3.05.52-.52.8-1.32,1.07-2.04.79-2.1,2.07-3.83,3.44-5.61,1.15-1.5,2.4-3.63,1.64-5.63-.43-1.14-.6-1.59-.15-2.87.89-2.49.99-5.28,1.3-7.96.12-1.09.12-2.15-.8-3.2-.37-.42.54-1.93.81-2.96.08-.31.12-.71,0-.99-.55-1.27-1.37-2.47-1.69-3.79-.34-1.4-.18-2.92-.31-4.39-.04-.44-.22-.93-.47-1.3-1.32-1.94-1.85-4.07-1.49-6.37.22-1.4-.4-2.46-1-3.6-.43-.81-1-1.73-.96-2.57.14-2.6-1.44-4.52-2.63-6.41-2.09-3.31-3.15-7.07-5.18-10.37-.08-.13.11-.6.26-.66.29-.11.83-.18.95-.02.77.99,1.64,1.97,2.11,3.11.8,1.93,1.81,3.65,3.43,4.99-.1,3.06,1.71,5.28,3.24,7.66.74,1.16,1.29,2.47,1.74,3.77.75,2.19,1.35,4.44,2.03,6.66.09.28.33.52.5.78.16-.27.39-.51.48-.8,1.69-5.21,1.03-10.24-.59-15.4Zm-65.78-6.92c-.27.13-.8.25-.9.12-1.76-2.15-5.27-2.43-6.01-5.74-.29-1.31-1.09-2.5-1.66-3.75,1.57-.18,2.58,1.15,3.93,1.49,1.54.39,1.25,1.11.55,2.03-.19.25-.34.52-.68,1.06.43.51.86,1.18,1.44,1.66,1.09.88,2.29,1.64,3.41,2.49.09.07.03.6-.08.65Zm25.08-2.14c-.27.05-.51.14-.74.24-.46.2-.85.48-1.21.81-.36.32-.68.68-1,1.04-.48.54-.97,1.07-1.56,1.46-.28.18-.62.36-.98.49-.6.23-1.23.34-1.66.17-3.78-1.58-7.69-.69-11.53-.92-1.32-.08-2.76-1.36-2.95-2.86-.05-.35.3-.99.61-1.1.57-.22,1.16-.43,1.75-.61s1.19-.32,1.8-.41c1.82-.25,3.65-.47,5.47-.68,1.83-.21,3.66-.42,5.48-.63.01.1.03.19.04.29.91,0,1.82-.02,2.73-.02.46,0,.91,0,1.36.01.45,0,.91.02,1.36.05.42.02.99.41,1.2.79.02.04.06.09.08.13.16.54-.04,1.72-.25,1.76Zm26.82,49.28c.13.1.26.2.4.3.07.05.13.1.2.15.65.51,1.19,1.09.72,2.14-.09.21-.2.39-.32.55-.85,1.07-2.29.83-3.57.83-.12,0-.25,0-.38,0h-.42c-.3,0-.66,0-1.12,0-.03,0-.06,0-.08,0-1.27.19-2.61.06-3.91-.44-.27-.1-.53-.22-.79-.36-.41-.21-.82-.48-1.22-.77-.11-.08-.21-.15-.32-.23-.09-.07-.16-.14-.23-.2-.25-.26-.32-.47-.22-.69.07-.17.23-.34.47-.55.32-.28.59-.52.85-.75.33-.3.61-.57.84-.81.17-.18.32-.35.42-.5.12-.17.19-.32.23-.47,0-.03.03-.06.03-.09.08-.42-.2-.76-.85-1.13-.13-.07-.28-.15-.44-.23-.48-.23-1.1-.48-1.85-.78-.42-.16-.79-.35-1.09-.59-.4-.32-.69-.75-.83-1.34-.04-.15-.06-.31-.08-.48-.05-.55.04-.89.23-1.11.31-.38.88-.45,1.45-.66.14-.05.27-.13.4-.23.38-.3.69-.77,1.03-1.13.2-.22.36-.43.5-.63.41-.61.56-1.19.46-1.76-.04-.2-.1-.4-.2-.6-.09-.19-.22-.39-.37-.58-.3-.39-.72-.79-1.26-1.2-.13-.1-.25-.2-.37-.3-.24-.21-.46-.42-.7-.62-.12-.1-.24-.2-.36-.28-.25-.18-.52-.32-.83-.42-.31-.09-.65-.14-1.06-.1-.14.01-.27,0-.38-.04-.29-.09-.45-.33-.53-.6-.01-.04-.03-.07-.03-.11-.07-.4.08-.82.37-.86.43-.07.74-.22,1-.4.06-.04.13-.07.18-.12.39-.34.59-.79.77-1.26.08-.22.16-.45.24-.67.12-.35.26-.68.47-.97.25-.35.5-.7.75-1.04.06-.08.13-.17.19-.25.71-.91,1.52-1.64,2.77-1.68.26,0,.54.01.84.06.1.02.2.03.31.04.75.07,1.67,0,1.96.39.1.14.16.26.2.38s.05.23.04.34c-.02.21-.13.41-.28.59-.22.27-.54.52-.8.78-.09.09-.16.18-.23.27-.38.52-.69,1.02-.94,1.48-.12.23-.23.46-.32.68-.18.44-.3.85-.36,1.23-.06.38-.05.73.02,1.06.32,1.47,1.95,2.38,4.88,2.76.33.04.67-.04,1,.01.94.14,1.41,1.08.76,1.68-.93.86-1.97,1.6-3.03,2.3-.61.4-.99.86-1.17,1.34-.03.07-.06.14-.08.22-.13.51-.01,1.03.37,1.51.26.33.65.64,1.16.92.23.13.48.24.73.33.75.3,1.56.49,2.34.68.3.07.53.18.69.31.25.2.35.44.32.69-.01.17-.08.34-.19.5-.06.08-.13.16-.2.23-.16.15-.29.29-.4.43-.2.27-.29.52-.3.75,0,.34.17.66.42.98.17.22.37.44.57.67.14.17.32.33.52.48Z" />
  </g>
  <g id="Layer_6" data-name="Layer 6">
    <g>
      <path
        d="m49.2,123.05c.52-.64,1.2-1.15,1.74-1.78,1.5-1.72,1.47-3.49-.52-4.34-1.33-.57-2.62-1.18-2.36-2.44.3-1.46,1.99-.37,2.98-.72.36-.13.6-.57.9-.87-.39-.37-.74-.99-1.19-1.06-3.5-.62-4.7-1.8-4.79-5.15-.04-1.57-.28-3.13.9-4.63.67-.86-1-3.43-1.37-3.11-1.98,1.71-2.24-.09-2.5-1.16-.39-1.62-1.6-1.03-2.32-.88-.48.1-.77,1.17-1.14,1.8-.75-.83-1.46-.95-2.12.11-.82,1.32-1.65,2.64-2.48,3.95-2.9,4.57-3.8,10.21-7.7,14.25-.19.2-.25.57-.29.87-.35,2.52-.58,5.05-1.04,7.55-.38,2.07.98,3.21,2.3,3.98,1.39.82,3.15.87,4.34-.76.62-.85,1.33-.94,1.74.02,1.15,2.69,4.04,1.56,5.86,2.76.18.12.89-.17.99-.42.35-.85.93-1.91.68-2.62-.26-.71-1.37-1.4-2.2-1.54-1.45-.25-2.98-.03-4.47-.09-.4-.02-.78-.34-1.17-.52.35-.35.65-.87,1.07-1.02.73-.26,1.54-.38,2.32-.41,1.66-.06,3.9.66,4.86-.16,1.81-1.55,2.89,1.3,4.28.15,1.29,0,1.27,0,2.69-1.74Z" />
      <path
        d="m49.33,140.62c-.67-2.18-2.36-3.53-3.99-4.73-.75-.55-2.29,1.09-3.62-.05-.27-.23-1.3.08-1.72.44-1.25,1.08-2.43,2.26-3.53,3.5-.95,1.07-.79,2.49.37,3.36.86.64,1.81,1.38,2.81,1.57,1.95.37,2.74,2.14,4.17,2.98,2.17,1.26,2.8-2.68,5.11-1.96.3.09.83-.37,1.18-.66.35-.3.61-.71.94-1.12-.61-1.15-1.37-2.18-1.73-3.33Z" />
    </g>
  </g>
  <g id="Layer_5" data-name="Layer 5">
    <g>
      <path
        d="m40.63,35.91c2.33-.27,4.52-.26,6.11,1.31,1.43,1.4,3.76-.43,4.85,1.62,2.05-.53,3.57.96,3.93,2.27.6,2.24,2.19,2.13,3.29,1.65,3.82-1.68,7.76-.59,11.62-.89,1.82-.14,3.67-.15,5.49.02,1.55.14,3.07.58,4.58.97,1.61.42,2.9,1,3.84,2.76,1.69,3.17,3.77,6.16,5.95,9.03,4.47,5.9,7.24,12.6,9.64,19.5,2.32,6.68,5.36,12.98,10.15,18.26,1.25,1.38,2.97,2.37,4.57,3.4,1.69,1.09,3.63,1.84,5.2,3.07,1.43,1.13,2.51,2.71,3.71,4.12.11.13.07.61-.03.66-.27.13-.65.23-.92.15-3.11-1.03-5.9-2.7-8.66-4.42-.25-.16-.68-.03-1.03-.03,0,.33-.12.75.04.98,1.53,2.2,2.28,4.9,4.54,6.65.81.63,1.11,1.89,1.84,2.69.49.54,1.29.87,2.01,1.13,2.54.94,2.83,1.29,2.55,3.81-.05.42-.48,1.17-.55,1.15-2.6-.76-2.46,1.99-3.73,2.92-2.02,1.47-2.21,2.78-.95,4.38.79,1,1.57,1.01,2.26.03.64-.9,1.14-2.39,1.95-2.58,1.81-.43,1.95-2.48,3.69-3.03.94-.29,1.27-.36,1.81.29.59-.56,1.1-1.25,1.78-1.66,1.27-.77,2.72-.18,4.1,1.55.92,1.15,1.05,2.29-.1,3.41-1.43,1.4-2.84,2.81-4.24,4.24-.69.7-1.72,1.36-1.9,2.19-.19.91-2.13,2.17.13,3.07.43.17.74.66,1.07,1.04.87.99.48,2.96-.73,3.07-3.2.28-6.49.69-9.11-1.92-1.3-1.29-2.72-2.49-3.86-3.9-3.35-4.14-8.12-5.82-12.77-7.8-1.67-.71-3.34,0-5.15-.85-2.9-1.36-6.5-1.21-9.44-2.5-4.23-1.86-9.01-2.69-12.37-6.43-1.3-1.44-3.27-2.49-5.14-3.16-1.96-.7-4.15-.88-5.75,1.23-1.19,1.56-2.65,2.83-4.8,2.84-.02,2.66-2.02,1.5-3.24,1.57-1.12.06-.66-.48-.27-1.12.82-1.31,1.53-2.69,2.13-4.11.83-1.92-.21-3.55-2.3-3.71-.83-.06-1.68-.12-2.49.01-1.48.25-1.6-.82-2.29-1.69-1.05-1.33-.37-1.83.28-2.87,1.33-2.15,1.87-5,4.34-6.12,1.9-.86,1.69-1.12.87-2.93-1.24-2.72-3.33-4.6-5.1-6.77-1.16-1.42-2.24-2.51-2.15-4.67.13-3.13-2.63-4.87-5.7-3.5-1.85.83-3.54.39-5.28.44-.62.02-1.77-1.19-1.78-1.85-.01-.67.97-1.7,1.72-1.97,1.61-.57,3.37-.69,5.05-1.09,1.28-.3,1.53-1.16.56-1.96-.58-.48-1.35-.75-2.07-1.01-.87-.32-1.83-.42-2.66-.81-.96-.46-1.81-1.15-2.7-1.74.85-1.13,1.89-1.79,3.39-1.47,1.42.3,1.58-.54,1.59-1.71.03-1.71-1.2-1.41-2.03-1.22-1.19.27-2.18,1.51-3.55.84-.57-.28-1.01-.87-1.37-1.42-.06-.09.59-.74.99-1,.37-.25.89-.26,1.29-.49.95-.53.9-1.26.18-1.93-.45-.42-.99-.81-1.56-1.03-.67-.26-2.05.39-1.85-.83.14-.83,1.24-1.78,2.12-2.1.77-.28,1.9.07,2.74.44,1.42.63,2.77.85,4.05-.11.46-.35.65-1.04.97-1.58-.48-.28-.95-.76-1.45-.8-1.59-.12-2.86-1.53-4.58-1.04-1.37.39-2.53-.46-2.8-1.46-.36-1.3-.69-2.9.82-4.05,1-.76,1.85-.68,1.94.61.08,1.11.35,1.92,1.21,2.51.36.25,1.27.4,1.27.38,1.15-3.49,4.08-1.93,6.13-1.84,1.82.08,3.35.34,4.85-.97.67-.58,1.69-.73,2.48-1.2.45-.26.75-.76,1.13-1.16-.49-.27-.97-.75-1.47-.79-5.7-.38-11.06-2.58-16.74-3.07-.28-.02-.64-.6-.76-.98-.41-1.36.42-2.42,1.44-2.82,1.01-.39,2.28-.08,3.23-.08Z" />
      <path
        d="m58.08,35.49c-1.63-1.86-4.28-1-6.05-2.15-4.54-2.95-9.57-4.88-14.38-7.26-.37-.18-1.17-.26-1.29-.07-.56.9-1.31,1.91-1.3,2.88,0,.66,1.05,1.7,1.8,1.89,2.85.72,5.55,1.89,8.13,3.16,3.49,1.71,7.61,1.46,10.85,3.84.39.29,1.46-.29,2.18-.55.28-.1.48-.45.83-.8-.25-.3-.49-.63-.77-.94Z" />
      <path
        d="m57.9,28.49c-1.99-2.27-3.1-5.23-6.93-5.86-2.4-.4-5.33-.48-7.41-2.56-.39-.39-1.54-.19-2.29-.02-.92.2-1.14,1.38-.54,2.09,2.56,3.01,6.18,4.21,9.63,5.69,1.84.79,3.72,1.47,5,1.97,2.21.11,3.17-.6,2.55-1.31Z" />
    </g>
  </g>
  <g id="Layer_4" data-name="Layer 4">
    <g>
      <path
        d="m138.89,49.98c-5.02-.38-10.03-.76-15.05-1.17-.29-.02-.56-.25-.84-.38.35-.2.68-.56,1.04-.58,5.18-.37,10.37-.69,15.56-1.02.5-.03,1.19.21,1.47-.04,1.53-1.4,3.4-1.12,5.1-.9,2.05.27,3.71-1.13,5.58-1.02,5.2.31,9.96-2.15,15.15-2.2,2.11-.02,4.22-1.72,6.3-2.72.21-.1.19-.67.28-1.03-1.5-.11-2.63-2.02-4.43-.82-.62.41-1.44.62-2.19.7-3.85.38-7.71.69-11.57,1.02-.32.03-.69-.04-.96.08-3.09,1.36-6.46,1.33-9.7,1.87-2.67.45-5.26,1.6-8.07,1.04-1.79,1.79-4.05.7-6.08,1-2.19.33-4.4,1.03-6.57.93-6.85-.3-13.69.61-20.59-.75-4.47-.88-9.15-.89-13.62-2.16-.62-.17-1.34-.12-1.99,0-1.31.24-.5.74-.09,1.19.41.45.79.94,1.18,1.41-1.78,1.43.18,2.08.78,2.29,1.6.58,3.37.7,5.04,1.1,3.03.71,6.05,1.45,9.04,2.3.45.13.72.89,1.07,1.36-.62.11-1.46.53-1.83.27-2.41-1.65-5.07-.72-7.61-.92-.42-.03-.88.26-1.32.41.38.19.76.36,1.13.57,1.92,1.07,4.3,1.17,6.07,2.16,1.87,1.05,3.75,2.21,5.67,3.25.53.29,1.18.37,1.75.58,3.46,1.3,6.89,2.69,10.47,3.65,4.19,1.14,8.34,2.62,12.61,3.22,3.76.53,7.3,1.78,10.99,2.5,4.46.87,8.76,2.48,13.38,2.63.94.03,2.06.02,2.76.51,2.04,1.4,3.67,0,5.38-.56,1.02-.34,1.02-1.39.21-1.86-2-1.15-4.06-2.27-6.22-3.05-2.17-.78-4.5-1.03-6.71-1.87-4.07-1.56-8.07-3.63-12.67-3.19-.49.05-1.2.18-1.44-.08-1.8-1.9-4.12-.37-6.09-1.02-1.9-.63-3.85-1.15-5.69-1.92-2.16-.9-4.67-.6-6.67-1.97-.29-.2-.55-.46-.83-.69.29-.1.59-.31.87-.29,6.35.31,12.7.65,19.06.98,2,1.62,4.37.74,6.57,1.01,2.2.27,4.38.7,6.58.97,2.2.27,4.58-.61,6.57,1.01,5.55-.1,10.97,1.7,16.56,1.03.88-.11,1.68-.04,1.56-1.25-.07-.73.28-1.49-.99-1.83-3.13-.83-6.13-2.1-9.27-2.9-4.3-1.1-8.79-.98-13.17-1.92-4.4-.95-9-.93-13.52-1.34-.01.13-.02.25-.04.38Z" />
      <path
        d="m120.22,43.7c1.75-1.28,3.48-.54,5.17-.9,1.69-.36,3.22-1.17,5.09-1.03,2.37.18,4.83-.58,6.97-1.23,4.13-1.27,8.39-2.06,12.48-3.57,5.07-1.87,10.12-3.7,14.93-6.15.44-.22.69-.83,1.03-1.25-.52-.24-1.03-.64-1.57-.69-2.62-.24-4.88.87-7.17,1.95-2.09.99-4.43,1.45-6.24,3.02-3.14-.41-5.62,1.79-8.65,2.12-2.87.31-5.62,1.61-8.44,2.44-.26.08-.61-.16-.91-.25.16-.43.27-1.21.5-1.24,3.39-.57,6.6-1.61,9.75-3.02,4.35-1.96,9.63-1.81,13.08-5.83.16-.19.61-.23.9-.19,2.65.41,3.86-1.8,5.71-2.94,4.03-2.48,6.51-6.46,9.94-9.5.18-.16.22-.75.08-.91-.28-.31-.72-.52-1.14-.64-1.14-.33-1.73.55-2.52,1.14-3.64,2.71-7.87,4.23-12.05,5.85-4.17,1.61-7.83,4.34-12.22,5.47-1.58,2.28-4.58,1.93-6.53,3.53-2.11,1.73-5.3.87-7.25,2.99-3.38-.09-6.36,1.72-9.66,2.01-3.53.3-7.05.93-10.57.92-4.19,0-8.4.59-12.61-.82-2.67-.9-5.91-.21-8.48-1.25-2.96-1.19-6.42-1.36-8.83-4.13-1.38-1.58-3.55-2.52-5.48-3.53-.43-.22-1.39.38-2.01.77-.96.6.06.92.26,1.4,1.15,2.63,3.15,4.08,5.88,4.94,1.89.59,3.59,1.76,5.36,2.71.27.15.44.5.65.75-.3.08-.62.26-.9.21-1.53-.29-3.05-.7-4.59-.95-.36-.06-.8.32-1.2.5.44.16.86.4,1.31.45,2.2.24,3.52,3.16,6.16,2.02,4.83,3.1,10.65,2.28,15.82,3.99,4.6-.73,9.02,1.07,13.57,1,1.5,0,3.42.58,4.4-.13Z" />
      <path
        d="m79.44,16.82c.83.06,1.88.36,2.45-.03,2.41-1.63,5.34-.07,7.51-1.14,2.62-1.28,5.13-.45,7.65-.79.81-.11,1.75.17,2.43-.15,2.93-1.38,6.18-1.02,9.21-1.83,3.31-.89,6.67-1.55,10-2.33.75-.18,1.46-.55,2.21-.67,2.51-.4,5.2-.28,7.49-1.19,2.35-.93,4.88-1,7.14-2.01,2.16-.96,4.51-1.16,6.7-1.88,2.51-.83,5-1.06,7.58-.97.4.01.83-.38,1.21-.64.27-.18.65-.44.68-.7.11-.9-2.66-2.84-3.51-2.43-1.11.54-2.1,1.47-3.26,1.74-2.31.53-4.7.67-7.05,1.08-1.21.21-2.37.78-3.58.94-1.3.17-2.79-.31-3.94.14-4.29,1.66-8.84,1.98-13.22,3.04-2.23.54-4.58.24-6.55.97-4,1.5-8.33,1.5-12.21,3-2.15.83-4.34.59-6.44,1.29-3.54,1.18-6.93,3.05-10.9,2.65-.63-.06-1.34.73-2.04,1.15.18.34.29.75.42.76Z" />
      <path
        d="m108.29,26.65c4.22-1.41,8.6-1.76,12.76-2.96,5.96-1.72,12.04-2.97,17.94-4.86,2.34-.75,4.57-1.95,6.96-2.45,2.62-.55,4.69-2.32,7.43-2.69,1.51-.21,2.84-1.93,4.17-3.05.28-.23.42-.99.25-1.29-.17-.3-.88-.56-1.24-.46-2.07.59-4.3.99-6.13,2.04-3.13,1.79-6.71,2.48-9.76,4.12-2.04,1.09-4.01.4-5.98,1.29-2.47,1.11-5.29,1.64-7.96,2.45-3.13.95-6.4,1.47-9.64,2.04-3.24.57-6.18,2.6-9.65,2.02-1.76,1.97-4.06.64-6.08.99-2.02.36-4.04.88-6.08.96-3.55.13-7.12.34-10.58-.91-.47-.17-1.17.29-1.76.46.47.47.88,1.25,1.42,1.36,2.32.48,4.67.91,7.03,1.1,2.32.18,4.66.04,6.99.04,3.33,0,6.92.8,9.92-.19Z" />
      <path
        d="m107.79,76.79c3.23,1.43,6.52,2.72,9.74,4.18,1.82.83,3.48,2.51,5.32,2.71,3.57.38,6.27,1.95,8.74,4.3.99.94,6.07,2.81,7.3,2.83,1.85.03,2.8-.73,3-2.37.25-2.1-.44-3.21-2.24-3.63-6.17-1.45-12.28-3.11-17.97-6-.55-.28-1.03-.87-1.59-.96-4.32-.66-8.48-1.84-12.44-3.73-.22-.1-.71.28-1.03.49-.27.18-.48.46-.77.75.65.49,1.22,1.11,1.93,1.42Z" />
    </g>
  </g>
  <g id="Layer_3" data-name="Layer 3">
    <path
      d="m153.97,93.99c2.99-4.07,8.57-4.43,11.55-8.42.06-.08.32-.01.49,0,.5,0,.99.01,1.49.02-.15.47-.17,1.06-.47,1.4-2.8,3.14-5.88,5.91-9.82,7.62-.99.43-2,1.13-2.65,1.97-1.54,1.98-2.97,4.07-4.21,6.24-.38.66-.1,2.52.09,2.55,1.85.32,2.52,2.02,3.84,2.89.24.16.91-.34,1.38-.54.11.62.25,1.24.33,1.86.06.49-.19,1.2.06,1.46,1.23,1.27,1.03,2.26.29,3.86-.76,1.63-1.8,2.35-3.23,3.09-2.93,1.52-5.87,1.48-8.83.31-1.14-.45-2.19-1.15-3.27-1.74-.24.4-.76.92-.66,1.19.65,1.59.67,3.74,3.2,3.85.5.02,1.03.45,1.45.81.78.67,1.39,1.86,2.24,2.05,1.17.25,2.62.05,3.74-.44,3.33-1.46,6.66-2.93,9.04-5.93,1.92-2.42,4.43-4.18,7.2-5.48,1.65-.78,1.65-2.54,2.67-3.65-1.78-1.13-.5-2.2.12-3.2,2-3.22,3.49-6.79,6.55-9.28.71-.58,1.16-1.36,1.57-2.33.71-1.7,2.13-3.15,3.41-4.57,3.55-3.96,5.89-8.94,10.21-12.25.11-.09.16-.27.24-.39,5.31-7.81,6.59-9.19,14.06-13.86,5.03-3.14,9.83-6.6,14.96-9.59,1.45-.85,2.01-3.24,2.92-4.96.08-.16-.2-.75-.38-.78-3.03-.52-1.7-2.09-.38-2.72,5.05-2.45,8.39-7.26,13.48-9.61,1.4-.65,2.83-1.29,4.09-2.15.88-.6,2.02-1.42.64-2.74-.71-.68-.65-1.29.25-1.93,4.2-2.99,4.18-3.01.09-5.7-1.85-1.22-2.33-1.19-3.82.28-1.42,1.4-2.59,3.27-4.28,4.15-4.43,2.29-6.6,7.18-11.13,9.26-2.28,3.56-5.81,5.92-8.89,8.62-2.46,2.16-5.45,3.94-7.78,6.23-3.71,3.65-7.75,6.81-11.98,9.78-.76.53-1.68.85-2.39,1.44-4.22,3.5-8.13,7.45-12.66,10.47-6.44,4.29-12.62,8.91-18.84,13.49-.77.57-1.28,1.59-2.11,1.94-4.15,1.77-6.99,5.39-10.82,7.59-.22.12-.03.95-.03,1.45,2.57-.73,5.34-1.33,6.98-3.57Z" />
  </g>
  <g id="Layer_2" data-name="Layer 2">
    <g>
      <path
        d="m318.9,57.58c-1.5-.63-1.92-2.19-1.89-3.37.04-1.94-.9-3.03-2.13-4.17-1.22-1.13-2.31-2.41-3.57-3.49-.56-.48-1.36-.73-2.09-.94-4.39-1.27-8.52-3.01-11.95-6.15-1.44-1.32-2.73-3.09-4.43-3.76-4.08-1.6-6.93-4.58-9.87-7.55-2.34-2.37-4.63-4.8-7.1-7.03-1.04-.94-2.42-1.84-3.94-.52-1.5,1.31-2.41.67-3-.95-.32-.87-.55-1.81-1.07-2.54-.44-.62-1.24-1.44-1.85-1.42-2.08.07-4.23-.67-6.25.53-.63.37-1.79.64-2.29.32-2.55-1.67-5.8-1.12-8.33-2.87-.96-.67-2.33-.83-3.55-1.03-4.63-.76-8.91-2.6-13.25-4.21-4.01-1.49-5.43-1.22-7.38,2.44-.94,1.76-.1,3.76,1.71,3.72,2.38-.05,4.18.91,6.13,2.19,1.56,1.03,3.39,2.49,5.84.92,2.57-1.64,2.72-1.37,5.39,1.49.91.97,1.94,1.84,2.8,2.85.49.58.98,1.31,1.07,2.03.16,1.18-.09,1.77,1.5.8,1.1-.67,2.97-.52,4.35-.17,1.76.45,3.61,1.2,4.98,2.34,1.72,1.44,3.8-.28,5.55,1.26,1.37,1.21,3.41,1.68,5.41,1.32,1.48-.26,2.47.43,3.26,1.62.55.83,4.25,3.77,5.15,4.39,4.55,3.1,9.75,5.23,13.65,9.29.31.32.79.49,1.2.69,3.67,1.84,6.87,4.46,10.32,6.54,4.46,2.68,5.93,6.69,7.64,10.89.19.48.44.93.66,1.4.45-.48,1.01-.9,1.3-1.47.2-.39,0-.98.05-1.48.11-.94.28-1.88.42-2.82.9.69,1.59,1.34,1.66,2.7.06,1.08.87,2.02-.02,3.23-.27.37.17,1.61.64,2.13.97,1.07,2.18,1.92,3.28,2.87v-11.99Z" />
      <path
        d="m292.52,73.91c-.27-.58-2.49-.05-3.7-.42-.67-.21-.94-1.5-1.63-1.88-3.24-1.79-6.82-3.07-9.79-5.21-4.08-2.94-8.7-4.86-12.94-7.48-3.44-2.12-6.41-5-10.2-6.62-.66-.28-.86-1.58-1.34-2.38-.47-.79-1.01-1.54-1.52-2.31-.49.63-1.07,1.21-1.45,1.9-.44.8-.56,1.8-1.06,2.54-.43.63-1.2,1.04-1.84,1.52-.11.08-.38.08-.48,0-.21-.16-.54-.49-.49-.59.42-.83.81-1.71,1.41-2.41.97-1.12.34-2.06-.52-2.37-1.79-.64-3.42-1.43-4.95-2.57-.36-.27-1.45-.1-1.8.26-.88.89-1.65,1.94-2.26,3.04-1.73,3.13-1.51,3.62,1.77,4.65,1.77.55,3.74.76,5.26,1.71,1.46.91,2.48,2.05,4.21.6.31-.26,1.19-.09,1.65.16,1.09.6,2.38,1.17,3.09,2.12,3.16,4.3,8.49,5.92,11.95,9.83.28.31.84.57,1.25.54,2.8-.19,5.01,1.72,7.66,2.04,1.28.15,2.29.97,2.06,2.23-.41,2.25,1.3,3.15,2.32,4.58,2.05,2.89,5.71,3.51,8.08,5.93.35.35,1.41.45,1.83.18.74-.48,1.4-1.24,1.79-2.04,1-2.04,1.65,1.45,2.48.1.31-.51.49-1.11.62-1.42-.48-2.32-.62-4.44-1.47-6.23Z" />
      <path
        d="m227.12,56.09c-.56.14-.99,2.46-.61,2.48,2.05.12,2.62,2.94,4.93,2.56.45-.07,1.08.91,1.53.84,1.34-.23,2.81-3.28,2.46-4.86-.39-1.79-1.7-2.16-4.15-1.97-.84.19-2.51.53-4.17.95Z" />
      <path
        d="m312.19,67.41c-.1-.28-.66-.41-1.01-.61-.09.29-.26.58-.26.87,0,1.6-.49,4.21-1.01,5.16-.51.94-.92,1.96-1.58,2.78-1.19,1.47.18,2.05.9,2.72.66.6,2.34-.17,2.64-1.29.52-1.95.83-3.95,1.26-6.1-.29-1.14-.54-2.35-.94-3.52Z" />
    </g>
  </g>
</svg>